<?xml version="1.0" encoding="UTF-8" standalone="no"?>
<!DOCTYPE svg PUBLIC "-//W3C//DTD SVG 1.1//EN" "http://www.w3.org/Graphics/SVG/1.1/DTD/svg11.dtd">
<svg width="100%" height="100%" viewBox="0 0 170 198" version="1.1" xmlns="http://www.w3.org/2000/svg" xmlns:xlink="http://www.w3.org/1999/xlink" xml:space="preserve" xmlns:serif="http://www.serif.com/" style="fill-rule:evenodd;clip-rule:evenodd;stroke-linejoin:round;stroke-miterlimit:2;">
    <g transform="matrix(1,0,0,1,-598.147,-284.505)">
        <g transform="matrix(1,0,0,1,136.437,43.9365)">
            <path d="M471.853,438.558C471.853,437.535 472.243,436.511 473.024,435.73L487.167,421.588C488.729,420.026 491.261,420.026 492.823,421.588L506.966,435.73C507.747,436.511 508.137,437.535 508.137,438.558L498.48,438.558L489.995,430.073C489.995,430.073 481.51,438.558 481.51,438.558L481.51,438.558L471.853,438.558ZM514.279,438.558C514.279,437.535 514.67,436.511 515.451,435.73L543.735,407.446C545.297,405.884 547.83,405.884 549.392,407.446L577.676,435.73C578.457,436.511 578.848,437.535 578.848,438.558L569.191,438.558L546.563,415.931C546.563,415.931 523.936,438.558 523.936,438.558L523.936,438.558L514.279,438.558ZM584.99,438.558C584.99,437.535 585.38,436.511 586.161,435.73L600.304,421.588C601.866,420.026 604.398,420.026 605.96,421.588L620.103,435.73C620.884,436.511 621.274,437.535 621.274,438.558L611.617,438.558L603.132,430.073C603.132,430.073 594.647,438.558 594.647,438.558L594.647,438.558L584.99,438.558ZM461.711,377.99C462.734,377.99 463.758,378.38 464.539,379.161L478.681,393.304C480.243,394.866 480.243,397.398 478.681,398.96L464.539,413.103C463.758,413.884 462.734,414.274 461.711,414.274L461.711,404.617L470.196,396.132L461.711,387.647C461.711,387.647 461.711,377.99 461.711,377.99ZM631.416,377.99L631.416,387.647L622.931,396.132C622.931,396.132 631.416,404.617 631.416,404.617L631.416,404.617L631.416,414.274C630.393,414.274 629.369,413.884 628.588,413.103L614.446,398.96C612.884,397.398 612.884,394.866 614.446,393.304L628.588,379.161C629.369,378.38 630.393,377.99 631.416,377.99ZM549.392,365.019C547.83,363.457 545.297,363.457 543.735,365.019L529.593,379.161C528.031,380.724 528.031,383.256 529.593,384.818L543.735,398.96C545.297,400.523 547.83,400.523 549.392,398.96L563.534,384.818C565.096,383.256 565.096,380.724 563.534,379.161L549.392,365.019ZM546.563,373.505L555.049,381.99C555.049,381.99 546.563,390.475 546.563,390.475C546.563,390.475 538.078,381.99 538.078,381.99C538.078,381.99 546.563,373.505 546.563,373.505ZM461.711,307.279L461.711,316.936L484.338,339.563L461.711,362.191L461.711,371.848C462.734,371.848 463.758,371.457 464.539,370.676L492.823,342.392C494.385,340.83 494.385,338.297 492.823,336.735L464.539,308.451C463.758,307.67 462.734,307.279 461.711,307.279ZM631.416,307.279L631.416,316.936C631.416,316.936 608.789,339.563 608.789,339.563C608.789,339.563 631.416,362.191 631.416,362.191L631.416,362.191L631.416,371.848C630.393,371.848 629.369,371.457 628.588,370.676L600.304,342.392C598.742,340.83 598.742,338.297 600.304,336.735L628.588,308.451C629.369,307.67 630.393,307.279 631.416,307.279ZM521.108,322.593C519.546,321.031 517.013,321.031 515.451,322.593L501.309,336.735C499.747,338.297 499.747,340.83 501.309,342.392L515.451,356.534C517.013,358.096 519.546,358.096 521.108,356.534L535.25,342.392C536.812,340.83 536.812,338.297 535.25,336.735L521.108,322.593ZM577.676,322.593C576.114,321.031 573.581,321.031 572.019,322.593L557.877,336.735C556.315,338.297 556.315,340.83 557.877,342.392L572.019,356.534C573.581,358.096 576.114,358.096 577.676,356.534L591.818,342.392C593.38,340.83 593.38,338.297 591.818,336.735L577.676,322.593ZM574.848,331.078L583.333,339.563C583.333,339.563 574.848,348.049 574.848,348.049C574.848,348.049 566.362,339.563 566.362,339.563C566.362,339.563 574.848,331.078 574.848,331.078ZM518.279,331.078L526.765,339.563C526.765,339.563 518.279,348.049 518.279,348.049C518.279,348.049 509.794,339.563 509.794,339.563C509.794,339.563 518.279,331.078 518.279,331.078ZM549.392,280.167C547.83,278.604 545.297,278.604 543.735,280.167L529.593,294.309C528.031,295.871 528.031,298.403 529.593,299.966L543.735,314.108C545.297,315.67 547.83,315.67 549.392,314.108L563.534,299.966C565.096,298.403 565.096,295.871 563.534,294.309L549.392,280.167ZM546.563,288.652L555.049,297.137C555.049,297.137 546.563,305.622 546.563,305.622C546.563,305.622 538.078,297.137 538.078,297.137C538.078,297.137 546.563,288.652 546.563,288.652ZM461.711,264.853C462.734,264.853 463.758,265.243 464.539,266.024L478.681,280.167C480.243,281.729 480.243,284.261 478.681,285.823L464.539,299.966C463.758,300.747 462.734,301.137 461.711,301.137L461.711,291.48L470.196,282.995L461.711,274.51C461.711,274.51 461.711,264.853 461.711,264.853ZM631.416,264.853L631.416,274.51L622.931,282.995C622.931,282.995 631.416,291.48 631.416,291.48L631.416,291.48L631.416,301.137C630.393,301.137 629.369,300.747 628.588,299.966L614.446,285.823C612.884,284.261 612.884,281.729 614.446,280.167L628.588,266.024C629.369,265.243 630.393,264.853 631.416,264.853ZM578.848,240.569C578.848,241.592 578.457,242.616 577.676,243.397L549.392,271.681C547.83,273.243 545.297,273.243 543.735,271.681L515.451,243.397C514.67,242.616 514.279,241.592 514.279,240.569L523.936,240.569L546.563,263.196C546.563,263.196 569.191,240.569 569.191,240.569L569.191,240.569L578.848,240.569ZM621.274,240.569C621.274,241.592 620.884,242.616 620.103,243.397L605.96,257.539C604.398,259.101 601.866,259.101 600.304,257.539L586.161,243.397C585.38,242.616 584.99,241.592 584.99,240.569L594.647,240.569L603.132,249.054C603.132,249.054 611.617,240.569 611.617,240.569L611.617,240.569L621.274,240.569ZM508.137,240.569C508.137,241.592 507.747,242.616 506.966,243.397L492.823,257.539C491.261,259.101 488.729,259.101 487.167,257.539L473.024,243.397C472.243,242.616 471.853,241.592 471.853,240.569L481.51,240.569L489.995,249.054C489.995,249.054 498.48,240.569 498.48,240.569L498.48,240.569L508.137,240.569Z" style="fill-opacity:0.02;"/>
        </g>
    </g>
</svg>
